<svg width="10" height="10" viewBox="0 0 10 10" fill="none" xmlns="http://www.w3.org/2000/svg">
<path d="M5 9C3.93913 9 2.92172 8.57857 2.17157 7.82843C1.42143 7.07828 1 6.06087 1 5C1 3.93913 1.42143 2.92172 2.17157 2.17157C2.92172 1.42143 3.93913 1 5 1C6.06087 1 7.07828 1.42143 7.82843 2.17157C8.57857 2.92172 9 3.93913 9 5C9 6.06087 8.57857 7.07828 7.82843 7.82843C7.07828 8.57857 6.06087 9 5 9ZM5 0C4.34339 0 3.69321 0.129329 3.08658 0.380602C2.47995 0.631876 1.92876 1.00017 1.46447 1.46447C0.526784 2.40215 0 3.67392 0 5C0 6.32608 0.526784 7.59785 1.46447 8.53553C1.92876 8.99983 2.47995 9.36812 3.08658 9.6194C3.69321 9.87067 4.34339 10 5 10C6.32608 10 7.59785 9.47322 8.53553 8.53553C9.47322 7.59785 10 6.32608 10 5C10 4.34339 9.87067 3.69321 9.6194 3.08658C9.36812 2.47995 8.99983 1.92876 8.53553 1.46447C8.07124 1.00017 7.52005 0.631876 6.91342 0.380602C6.30679 0.129329 5.65661 0 5 0ZM5 2.5C4.33696 2.5 3.70107 2.76339 3.23223 3.23223C2.76339 3.70107 2.5 4.33696 2.5 5C2.5 5.66304 2.76339 6.29893 3.23223 6.76777C3.70107 7.23661 4.33696 7.5 5 7.5C5.66304 7.5 6.29893 7.23661 6.76777 6.76777C7.23661 6.29893 7.5 5.66304 7.5 5C7.5 4.33696 7.23661 3.70107 6.76777 3.23223C6.29893 2.76339 5.66304 2.5 5 2.5Z" fill="#4FAF3B"/>
</svg>
