<svg width="10" height="10" viewBox="0 0 10 10" fill="none" xmlns="http://www.w3.org/2000/svg">
<path fill-rule="evenodd" clip-rule="evenodd" d="M9.70711 0.292893C10.0976 0.683417 10.0976 1.31658 9.70711 1.70711L1.70711 9.70711C1.31658 10.0976 0.683417 10.0976 0.292893 9.70711C-0.0976311 9.31658 -0.0976311 8.68342 0.292893 8.29289L8.29289 0.292893C8.68342 -0.0976311 9.31658 -0.0976311 9.70711 0.292893Z" fill="#7B7B7B"/>
<path fill-rule="evenodd" clip-rule="evenodd" d="M0.292893 0.292893C-0.097631 0.683418 -0.097631 1.31658 0.292893 1.70711L8.29289 9.70711C8.68342 10.0976 9.31658 10.0976 9.70711 9.70711C10.0976 9.31658 10.0976 8.68342 9.70711 8.29289L1.70711 0.292893C1.31658 -0.097631 0.683417 -0.097631 0.292893 0.292893Z" fill="#7B7B7B"/>
</svg>
