<svg width="32" height="32" viewBox="0 0 32 32" fill="none" xmlns="http://www.w3.org/2000/svg">
<g clip-path="url(#clip0_35_1341)">
<path d="M23.6364 11.5455H12.8182C12.6495 11.5455 12.4876 11.4784 12.3683 11.3591C12.2489 11.2397 12.1819 11.0779 12.1819 10.9091C12.1819 10.7403 12.2489 10.5785 12.3683 10.4591C12.4876 10.3398 12.6495 10.2727 12.8182 10.2727H23.6364C23.8052 10.2727 23.9671 10.3398 24.0864 10.4591C24.2057 10.5785 24.2728 10.7403 24.2728 10.9091C24.2728 11.0779 24.2057 11.2397 24.0864 11.3591C23.9671 11.4784 23.8052 11.5455 23.6364 11.5455Z" fill="black"/>
<path d="M10.2727 11.5455H8.36366C8.19488 11.5455 8.03302 11.4784 7.91368 11.3591C7.79434 11.2397 7.72729 11.0779 7.72729 10.9091C7.72729 10.7403 7.79434 10.5785 7.91368 10.4591C8.03302 10.3398 8.19488 10.2727 8.36366 10.2727H10.2727C10.4415 10.2727 10.6034 10.3398 10.7227 10.4591C10.8421 10.5785 10.9091 10.7403 10.9091 10.9091C10.9091 11.0779 10.8421 11.2397 10.7227 11.3591C10.6034 11.4784 10.4415 11.5455 10.2727 11.5455Z" fill="black"/>
<path d="M19.1818 16.6364H8.36366C8.19488 16.6364 8.03302 16.5693 7.91368 16.45C7.79434 16.3306 7.72729 16.1688 7.72729 16C7.72729 15.8312 7.79434 15.6694 7.91368 15.55C8.03302 15.4307 8.19488 15.3636 8.36366 15.3636H19.1818C19.3506 15.3636 19.5125 15.4307 19.6318 15.55C19.7512 15.6694 19.8182 15.8312 19.8182 16C19.8182 16.1688 19.7512 16.3306 19.6318 16.45C19.5125 16.5693 19.3506 16.6364 19.1818 16.6364Z" fill="black"/>
<path d="M12.8182 21.7273H8.36366C8.19488 21.7273 8.03302 21.6602 7.91368 21.5409C7.79434 21.4216 7.72729 21.2597 7.72729 21.0909C7.72729 20.9221 7.79434 20.7603 7.91368 20.6409C8.03302 20.5216 8.19488 20.4546 8.36366 20.4546H12.8182C12.987 20.4546 13.1488 20.5216 13.2682 20.6409C13.3875 20.7603 13.4546 20.9221 13.4546 21.0909C13.4546 21.2597 13.3875 21.4216 13.2682 21.5409C13.1488 21.6602 12.987 21.7273 12.8182 21.7273Z" fill="black"/>
<path d="M11.5456 12.8182C11.168 12.8182 10.7989 12.7062 10.4849 12.4964C10.171 12.2867 9.92629 11.9885 9.7818 11.6397C9.6373 11.2908 9.5995 10.907 9.67316 10.5366C9.74682 10.1663 9.92864 9.82615 10.1956 9.55916C10.4626 9.29217 10.8028 9.11035 11.1731 9.03668C11.5434 8.96302 11.9273 9.00083 12.2761 9.14532C12.625 9.28982 12.9231 9.53451 13.1329 9.84846C13.3427 10.1624 13.4547 10.5315 13.4547 10.9091C13.4547 11.4154 13.2535 11.901 12.8955 12.259C12.5375 12.617 12.0519 12.8182 11.5456 12.8182ZM11.5456 10.2727C11.4197 10.2727 11.2967 10.3101 11.192 10.38C11.0874 10.4499 11.0058 10.5493 10.9576 10.6656C10.9095 10.7818 10.8969 10.9098 10.9214 11.0332C10.946 11.1567 11.0066 11.2701 11.0956 11.3591C11.1846 11.4481 11.298 11.5087 11.4214 11.5332C11.5449 11.5578 11.6728 11.5452 11.7891 11.497C11.9054 11.4489 12.0048 11.3673 12.0747 11.2626C12.1446 11.158 12.1819 11.035 12.1819 10.9091C12.1819 10.7403 12.1149 10.5785 11.9955 10.4591C11.8762 10.3398 11.7143 10.2727 11.5456 10.2727Z" fill="black"/>
<path d="M20.4545 17.9091C20.0769 17.9091 19.7078 17.7971 19.3939 17.5874C19.0799 17.3776 18.8352 17.0794 18.6907 16.7306C18.5462 16.3817 18.5084 15.9979 18.5821 15.6276C18.6558 15.2572 18.8376 14.9171 19.1046 14.6501C19.3716 14.3831 19.7117 14.2013 20.0821 14.1276C20.4524 14.0539 20.8362 14.0917 21.1851 14.2362C21.5339 14.3807 21.8321 14.6254 22.0419 14.9394C22.2516 15.2533 22.3636 15.6224 22.3636 16C22.3636 16.5063 22.1625 16.9919 21.8044 17.3499C21.4464 17.708 20.9608 17.9091 20.4545 17.9091ZM20.4545 15.3636C20.3286 15.3636 20.2056 15.401 20.101 15.4709C19.9963 15.5408 19.9147 15.6402 19.8666 15.7565C19.8184 15.8728 19.8058 16.0007 19.8304 16.1242C19.8549 16.2476 19.9155 16.361 20.0045 16.45C20.0935 16.539 20.2069 16.5996 20.3304 16.6241C20.4538 16.6487 20.5817 16.6361 20.698 16.5879C20.8143 16.5398 20.9137 16.4582 20.9836 16.3535C21.0535 16.2489 21.0909 16.1259 21.0909 16C21.0909 15.8312 21.0238 15.6694 20.9045 15.55C20.7851 15.4307 20.6233 15.3636 20.4545 15.3636Z" fill="black"/>
<path d="M14.091 23C13.7134 23 13.3443 22.888 13.0303 22.6783C12.7164 22.4685 12.4717 22.1703 12.3272 21.8215C12.1827 21.4727 12.1449 21.0888 12.2186 20.7185C12.2922 20.3481 12.4741 20.008 12.741 19.741C13.008 19.474 13.3482 19.2922 13.7185 19.2185C14.0889 19.1448 14.4727 19.1827 14.8216 19.3271C15.1704 19.4716 15.4686 19.7163 15.6783 20.0303C15.8881 20.3442 16.0001 20.7133 16.0001 21.0909C16.0001 21.5972 15.7989 22.0828 15.4409 22.4408C15.0829 22.7989 14.5973 23 14.091 23ZM14.091 20.4546C13.9651 20.4546 13.8421 20.4919 13.7374 20.5618C13.6328 20.6317 13.5512 20.7311 13.5031 20.8474C13.4549 20.9637 13.4423 21.0916 13.4668 21.2151C13.4914 21.3385 13.552 21.4519 13.641 21.5409C13.73 21.6299 13.8434 21.6905 13.9668 21.7151C14.0903 21.7396 14.2182 21.727 14.3345 21.6788C14.4508 21.6307 14.5502 21.5491 14.6201 21.4445C14.69 21.3398 14.7273 21.2168 14.7273 21.0909C14.7273 20.9221 14.6603 20.7603 14.541 20.6409C14.4216 20.5216 14.2598 20.4546 14.091 20.4546Z" fill="black"/>
<path d="M23.6363 16.6364H21.7272C21.5584 16.6364 21.3965 16.5693 21.2772 16.45C21.1579 16.3306 21.0908 16.1688 21.0908 16C21.0908 15.8312 21.1579 15.6694 21.2772 15.55C21.3965 15.4307 21.5584 15.3636 21.7272 15.3636H23.6363C23.805 15.3636 23.9669 15.4307 24.0863 15.55C24.2056 15.6694 24.2726 15.8312 24.2726 16C24.2726 16.1688 24.2056 16.3306 24.0863 16.45C23.9669 16.5693 23.805 16.6364 23.6363 16.6364Z" fill="black"/>
<path d="M23.6364 21.7273H15.3637C15.1949 21.7273 15.033 21.6602 14.9137 21.5409C14.7943 21.4216 14.7273 21.2597 14.7273 21.0909C14.7273 20.9221 14.7943 20.7603 14.9137 20.6409C15.033 20.5216 15.1949 20.4546 15.3637 20.4546H23.6364C23.8052 20.4546 23.967 20.5216 24.0864 20.6409C24.2057 20.7603 24.2727 20.9221 24.2727 21.0909C24.2727 21.2597 24.2057 21.4216 24.0864 21.5409C23.967 21.6602 23.8052 21.7273 23.6364 21.7273Z" fill="black"/>
</g>
<defs>
<clipPath id="clip0_35_1341">
<rect width="32" height="32" fill="white"/>
</clipPath>
</defs>
</svg>
