<svg width="12" height="14" viewBox="0 0 12 14" fill="none" xmlns="http://www.w3.org/2000/svg">
<path d="M11.5292 11.1091C11.2282 10.3793 10.7914 9.71647 10.2431 9.15743C9.69642 8.59678 9.04886 8.14978 8.33616 7.8411C8.32978 7.83784 8.32339 7.8362 8.31701 7.83294C9.31115 7.09801 9.95743 5.9009 9.95743 4.55027C9.95743 2.31284 8.18616 0.500023 6 0.500023C3.81385 0.500023 2.04258 2.31284 2.04258 4.55027C2.04258 5.9009 2.68886 7.09801 3.683 7.83457C3.67662 7.83784 3.67023 7.83947 3.66385 7.84274C2.94896 8.1514 2.30748 8.59399 1.75695 9.15907C1.20915 9.71854 0.772387 10.3813 0.470786 11.1107C0.174494 11.8248 0.0146968 12.5904 4.49419e-05 13.3661C-0.000380993 13.3835 0.00260627 13.4009 0.00883079 13.4171C0.0150552 13.4333 0.0243909 13.4481 0.0362879 13.4606C0.0481848 13.4731 0.0624021 13.483 0.0781021 13.4898C0.0938021 13.4965 0.110667 13.5 0.127704 13.5H1.08514C1.15536 13.5 1.21121 13.4429 1.2128 13.3726C1.24472 12.1118 1.73939 10.9311 2.61386 10.0361C3.51864 9.11007 4.72023 8.60052 6 8.60052C7.27978 8.60052 8.48137 9.11007 9.38615 10.0361C10.2606 10.9311 10.7553 12.1118 10.7872 13.3726C10.7888 13.4445 10.8447 13.5 10.9149 13.5H11.8723C11.8893 13.5 11.9062 13.4965 11.9219 13.4898C11.9376 13.483 11.9518 13.4731 11.9637 13.4606C11.9756 13.4481 11.985 13.4333 11.9912 13.4171C11.9974 13.4009 12.0004 13.3835 12 13.3661C11.984 12.5854 11.826 11.826 11.5292 11.1091ZM6 7.35932C5.26756 7.35932 4.57821 7.06698 4.05959 6.5362C3.54098 6.00542 3.25534 5.2999 3.25534 4.55027C3.25534 3.80065 3.54098 3.09512 4.05959 2.56434C4.57821 2.03357 5.26756 1.74123 6 1.74123C6.73245 1.74123 7.4218 2.03357 7.94042 2.56434C8.45903 3.09512 8.74467 3.80065 8.74467 4.55027C8.74467 5.2999 8.45903 6.00542 7.94042 6.5362C7.4218 7.06698 6.73245 7.35932 6 7.35932Z" fill="#1E1E1E"/>
</svg>
