<svg width="24" height="25" viewBox="0 0 24 25" fill="none" xmlns="http://www.w3.org/2000/svg">
<g clip-path="url(#clip0_38_58)">
<path d="M16.8 24.5H7.08004C5.10004 24.5 3.54004 22.88 3.54004 20.96V10.1C3.54004 9.74 3.78004 9.5 4.14004 9.5C4.50004 9.5 4.74004 9.74 4.74004 10.1V20.96C4.74004 22.28 5.82004 23.3 7.08004 23.3H16.8C18.12 23.3 19.14 22.22 19.14 20.96V10.1C19.14 9.74 19.38 9.5 19.74 9.5C20.1 9.5 20.34 9.74 20.34 10.1V20.96C20.34 22.88 18.72 24.5 16.8 24.5Z" fill="black"/>
<path d="M19.9799 3.44H15.4199C15.1199 1.76 13.6799 0.5 11.9399 0.5C10.1999 0.5 8.75994 1.76 8.45994 3.44H3.89994C2.51994 3.44 1.43994 4.52 1.43994 5.9C1.43994 7.28 2.51994 8.3 3.89994 8.3H20.0399C21.4199 8.3 22.4999 7.22 22.4999 5.84C22.4999 4.46 21.3599 3.44 19.9799 3.44ZM11.9399 1.7C13.0199 1.7 13.9199 2.42 14.1599 3.44H9.65994C9.95994 2.42 10.8599 1.7 11.9399 1.7ZM19.9799 7.1H3.89994C3.23994 7.1 2.63994 6.56 2.63994 5.84C2.63994 5.18 3.17994 4.58 3.89994 4.58H20.0399C20.6999 4.58 21.2999 5.12 21.2999 5.84C21.2399 6.56 20.6999 7.1 19.9799 7.1Z" fill="black"/>
<path d="M7.73989 21.56C7.37989 21.56 7.13989 21.32 7.13989 20.96V10.94C7.13989 10.58 7.37989 10.34 7.73989 10.34C8.09989 10.34 8.33989 10.58 8.33989 10.94V20.96C8.33989 21.26 8.03989 21.56 7.73989 21.56Z" fill="black"/>
<path d="M16.14 21.56C15.78 21.56 15.54 21.32 15.54 20.96V10.94C15.54 10.58 15.78 10.34 16.14 10.34C16.5 10.34 16.74 10.58 16.74 10.94V20.96C16.74 21.26 16.44 21.56 16.14 21.56Z" fill="black"/>
<path d="M11.9401 21.56C11.5801 21.56 11.3401 21.32 11.3401 20.96V10.94C11.3401 10.58 11.5801 10.34 11.9401 10.34C12.3001 10.34 12.5401 10.58 12.5401 10.94V20.96C12.5401 21.26 12.2401 21.56 11.9401 21.56Z" fill="black"/>
</g>
<defs>
<clipPath id="clip0_38_58">
<rect width="24" height="24" fill="white" transform="translate(0 0.5)"/>
</clipPath>
</defs>
</svg>
